<?xml version="1.0" encoding="utf-8" standalone="no"?>
<!DOCTYPE svg PUBLIC "-//W3C//DTD SVG 1.1//EN"
  "http://www.w3.org/Graphics/SVG/1.1/DTD/svg11.dtd">
<svg xmlns:xlink="http://www.w3.org/1999/xlink" width="512.39952pt" height="483.59952pt" viewBox="0 0 512.39952 483.59952" xmlns="http://www.w3.org/2000/svg" version="1.1">
 <metadata>
  <rdf:RDF xmlns:dc="http://purl.org/dc/elements/1.1/" xmlns:cc="http://creativecommons.org/ns#" xmlns:rdf="http://www.w3.org/1999/02/22-rdf-syntax-ns#">
   <cc:Work>
    <dc:type rdf:resource="http://purl.org/dc/dcmitype/StillImage"/>
    <dc:format>image/svg+xml</dc:format>
    <dc:creator>
     <cc:Agent>
      <dc:title>Matplotlib v3.10.8, https://matplotlib.org/</dc:title>
     </cc:Agent>
    </dc:creator>
   </cc:Work>
  </rdf:RDF>
 </metadata>
 <defs>
  <style type="text/css">*{stroke-linejoin: round; stroke-linecap: butt}</style>
 </defs>
 <g id="figure_1">
  <g id="patch_1">
   <path d="M 0 483.59952 
L 512.39952 483.59952 
L 512.39952 0 
L 0 0 
L 0 483.59952 
z
" style="fill: none"/>
  </g>
  <g id="axes_1">
   <g id="patch_2">
    <path d="M 61.551563 444.75952 
L 505.19952 444.75952 
L 505.19952 24.3 
L 61.551563 24.3 
L 61.551563 444.75952 
z
" style="fill: none"/>
   </g>
   <g id="matplotlib.axis_1">
    <g id="xtick_1">
     <g id="line2d_1">
      <path d="M 61.551563 444.75952 
L 61.551563 24.3 
" clip-path="url(#p4fd6bfe4f3)" style="fill: none; stroke: #2a3140; stroke-width: 0.6; stroke-linecap: square"/>
     </g>
     <g id="line2d_2">
      <defs>
       <path id="madc9e67ae6" d="M 0 0 
L 0 3.5 
" style="stroke: #8b97a6; stroke-width: 0.8"/>
      </defs>
      <g>
       <use xlink:href="#madc9e67ae6" x="61.551563" y="444.75952" style="fill: #8b97a6; stroke: #8b97a6; stroke-width: 0.8"/>
      </g>
     </g>
     <g id="text_1">
      <!-- 0 -->
      <g style="fill: #8b97a6" transform="translate(58.361719 458.75952) scale(0.1 -0.1)">
       <defs>
        <path id="SpaceGrotesk-Light-30" d="M 2042 -90 
Q 1286 -90 848 368 
Q 410 826 410 1728 
L 410 2752 
Q 410 3654 848 4112 
Q 1286 4570 2042 4570 
Q 2797 4570 3235 4112 
Q 3674 3654 3674 2752 
L 3674 1728 
Q 3674 826 3235 368 
Q 2797 -90 2042 -90 
z
M 2042 269 
Q 2656 269 2966 649 
Q 3277 1030 3277 1702 
L 3277 2778 
Q 3277 3450 2966 3830 
Q 2656 4211 2042 4211 
Q 1427 4211 1116 3830 
Q 806 3450 806 2778 
L 806 1702 
Q 806 1030 1116 649 
Q 1427 269 2042 269 
z
" transform="scale(0.015625)"/>
       </defs>
       <use xlink:href="#SpaceGrotesk-Light-30"/>
      </g>
     </g>
    </g>
    <g id="xtick_2">
     <g id="line2d_3">
      <path d="M 113.74544 444.75952 
L 113.74544 24.3 
" clip-path="url(#p4fd6bfe4f3)" style="fill: none; stroke: #2a3140; stroke-width: 0.6; stroke-linecap: square"/>
     </g>
     <g id="line2d_4">
      <g>
       <use xlink:href="#madc9e67ae6" x="113.74544" y="444.75952" style="fill: #8b97a6; stroke: #8b97a6; stroke-width: 0.8"/>
      </g>
     </g>
     <g id="text_2">
      <!-- 10 -->
      <g style="fill: #8b97a6" transform="translate(108.535284 458.75952) scale(0.1 -0.1)">
       <defs>
        <path id="SpaceGrotesk-Light-31" d="M 1638 0 
L 1638 4237 
L 1555 4237 
L 576 2573 
L 128 2573 
L 1261 4480 
L 2035 4480 
L 2035 0 
L 1638 0 
z
" transform="scale(0.015625)"/>
       </defs>
       <use xlink:href="#SpaceGrotesk-Light-31"/>
       <use xlink:href="#SpaceGrotesk-Light-30" transform="translate(40.399994 0)"/>
      </g>
     </g>
    </g>
    <g id="xtick_3">
     <g id="line2d_5">
      <path d="M 165.939317 444.75952 
L 165.939317 24.3 
" clip-path="url(#p4fd6bfe4f3)" style="fill: none; stroke: #2a3140; stroke-width: 0.6; stroke-linecap: square"/>
     </g>
     <g id="line2d_6">
      <g>
       <use xlink:href="#madc9e67ae6" x="165.939317" y="444.75952" style="fill: #8b97a6; stroke: #8b97a6; stroke-width: 0.8"/>
      </g>
     </g>
     <g id="text_3">
      <!-- 20 -->
      <g style="fill: #8b97a6" transform="translate(159.719786 458.75952) scale(0.1 -0.1)">
       <defs>
        <path id="SpaceGrotesk-Light-32" d="M 371 0 
L 371 442 
Q 371 922 544 1200 
Q 717 1478 1027 1644 
Q 1338 1811 1760 1939 
L 2080 2042 
Q 2394 2138 2634 2275 
Q 2874 2413 3008 2630 
Q 3142 2848 3142 3181 
L 3142 3206 
Q 3142 3674 2819 3942 
Q 2496 4211 1997 4211 
Q 1466 4211 1126 3926 
Q 787 3642 787 3059 
L 787 2976 
L 403 2976 
L 403 3059 
Q 403 3546 608 3882 
Q 813 4218 1174 4394 
Q 1536 4570 1997 4570 
Q 2458 4570 2806 4400 
Q 3155 4230 3347 3926 
Q 3539 3622 3539 3219 
L 3539 3162 
Q 3539 2726 3369 2448 
Q 3200 2170 2893 1994 
Q 2586 1818 2170 1683 
L 1850 1587 
Q 1504 1478 1264 1360 
Q 1024 1242 896 1046 
Q 768 851 768 506 
L 768 358 
L 3501 358 
L 3501 0 
L 371 0 
z
" transform="scale(0.015625)"/>
       </defs>
       <use xlink:href="#SpaceGrotesk-Light-32"/>
       <use xlink:href="#SpaceGrotesk-Light-30" transform="translate(60.599991 0)"/>
      </g>
     </g>
    </g>
    <g id="xtick_4">
     <g id="line2d_7">
      <path d="M 218.133195 444.75952 
L 218.133195 24.3 
" clip-path="url(#p4fd6bfe4f3)" style="fill: none; stroke: #2a3140; stroke-width: 0.6; stroke-linecap: square"/>
     </g>
     <g id="line2d_8">
      <g>
       <use xlink:href="#madc9e67ae6" x="218.133195" y="444.75952" style="fill: #8b97a6; stroke: #8b97a6; stroke-width: 0.8"/>
      </g>
     </g>
     <g id="text_4">
      <!-- 30 -->
      <g style="fill: #8b97a6" transform="translate(211.928507 458.75952) scale(0.1 -0.1)">
       <defs>
        <path id="SpaceGrotesk-Light-33" d="M 1939 -90 
Q 1472 -90 1104 89 
Q 736 269 528 611 
Q 320 954 320 1440 
L 320 1562 
L 717 1562 
L 717 1434 
Q 717 890 1056 579 
Q 1395 269 1939 269 
Q 2490 269 2797 563 
Q 3104 858 3104 1306 
L 3104 1344 
Q 3104 1677 2947 1881 
Q 2790 2086 2524 2185 
Q 2259 2285 1939 2285 
L 1280 2285 
L 1280 2822 
L 3098 4058 
L 3098 4122 
L 422 4122 
L 422 4480 
L 3494 4480 
L 3494 3904 
L 1696 2682 
L 1696 2618 
L 2048 2618 
Q 2464 2618 2790 2474 
Q 3117 2330 3309 2051 
Q 3501 1773 3501 1357 
L 3501 1293 
Q 3501 877 3309 566 
Q 3117 256 2765 83 
Q 2413 -90 1939 -90 
z
" transform="scale(0.015625)"/>
       </defs>
       <use xlink:href="#SpaceGrotesk-Light-33"/>
       <use xlink:href="#SpaceGrotesk-Light-30" transform="translate(60.299988 0)"/>
      </g>
     </g>
    </g>
    <g id="xtick_5">
     <g id="line2d_9">
      <path d="M 270.327072 444.75952 
L 270.327072 24.3 
" clip-path="url(#p4fd6bfe4f3)" style="fill: none; stroke: #2a3140; stroke-width: 0.6; stroke-linecap: square"/>
     </g>
     <g id="line2d_10">
      <g>
       <use xlink:href="#madc9e67ae6" x="270.327072" y="444.75952" style="fill: #8b97a6; stroke: #8b97a6; stroke-width: 0.8"/>
      </g>
     </g>
     <g id="text_5">
      <!-- 40 -->
      <g style="fill: #8b97a6" transform="translate(264.037228 458.75952) scale(0.1 -0.1)">
       <defs>
        <path id="SpaceGrotesk-Light-34" d="M 2611 0 
L 2611 922 
L 218 922 
L 218 1395 
L 2240 4480 
L 3008 4480 
L 3008 1280 
L 3789 1280 
L 3789 922 
L 3008 922 
L 3008 0 
L 2611 0 
z
M 634 1280 
L 2611 1280 
L 2611 4250 
L 2534 4250 
L 634 1344 
L 634 1280 
z
" transform="scale(0.015625)"/>
       </defs>
       <use xlink:href="#SpaceGrotesk-Light-34"/>
       <use xlink:href="#SpaceGrotesk-Light-30" transform="translate(61.999985 0)"/>
      </g>
     </g>
    </g>
    <g id="xtick_6">
     <g id="line2d_11">
      <path d="M 322.520949 444.75952 
L 322.520949 24.3 
" clip-path="url(#p4fd6bfe4f3)" style="fill: none; stroke: #2a3140; stroke-width: 0.6; stroke-linecap: square"/>
     </g>
     <g id="line2d_12">
      <g>
       <use xlink:href="#madc9e67ae6" x="322.520949" y="444.75952" style="fill: #8b97a6; stroke: #8b97a6; stroke-width: 0.8"/>
      </g>
     </g>
     <g id="text_6">
      <!-- 50 -->
      <g style="fill: #8b97a6" transform="translate(316.341262 458.75952) scale(0.1 -0.1)">
       <defs>
        <path id="SpaceGrotesk-Light-35" d="M 1926 -90 
Q 1453 -90 1101 99 
Q 749 288 553 624 
Q 358 960 358 1402 
L 358 1485 
L 755 1485 
L 755 1421 
Q 755 845 1081 557 
Q 1408 269 1920 269 
Q 2470 269 2780 582 
Q 3091 896 3091 1453 
L 3091 1504 
Q 3091 2035 2793 2348 
Q 2496 2662 2010 2662 
Q 1728 2662 1542 2569 
Q 1357 2477 1251 2345 
Q 1146 2214 1082 2093 
L 493 2093 
L 493 4480 
L 3386 4480 
L 3386 4122 
L 890 4122 
L 890 2387 
L 966 2387 
Q 1037 2534 1171 2675 
Q 1306 2816 1533 2912 
Q 1760 3008 2099 3008 
Q 2490 3008 2803 2825 
Q 3117 2643 3302 2307 
Q 3488 1971 3488 1510 
L 3488 1446 
Q 3488 998 3299 652 
Q 3110 307 2761 108 
Q 2413 -90 1926 -90 
z
" transform="scale(0.015625)"/>
       </defs>
       <use xlink:href="#SpaceGrotesk-Light-35"/>
       <use xlink:href="#SpaceGrotesk-Light-30" transform="translate(59.799988 0)"/>
      </g>
     </g>
    </g>
    <g id="xtick_7">
     <g id="line2d_13">
      <path d="M 374.714827 444.75952 
L 374.714827 24.3 
" clip-path="url(#p4fd6bfe4f3)" style="fill: none; stroke: #2a3140; stroke-width: 0.6; stroke-linecap: square"/>
     </g>
     <g id="line2d_14">
      <g>
       <use xlink:href="#madc9e67ae6" x="374.714827" y="444.75952" style="fill: #8b97a6; stroke: #8b97a6; stroke-width: 0.8"/>
      </g>
     </g>
     <g id="text_7">
      <!-- 60 -->
      <g style="fill: #8b97a6" transform="translate(368.474983 458.75952) scale(0.1 -0.1)">
       <defs>
        <path id="SpaceGrotesk-Light-36" d="M 1978 -90 
Q 1536 -90 1181 89 
Q 826 269 618 608 
Q 410 947 410 1421 
L 410 3002 
Q 410 3488 598 3837 
Q 787 4186 1139 4378 
Q 1491 4570 1990 4570 
Q 2483 4570 2822 4390 
Q 3162 4211 3334 3910 
Q 3507 3610 3507 3232 
L 3110 3232 
Q 3110 3674 2825 3942 
Q 2541 4211 1990 4211 
Q 1427 4211 1116 3900 
Q 806 3590 806 3046 
L 806 2362 
L 883 2362 
Q 1005 2579 1289 2761 
Q 1574 2944 2074 2944 
Q 2490 2944 2822 2761 
Q 3155 2579 3350 2249 
Q 3546 1920 3546 1466 
L 3546 1389 
Q 3546 934 3338 601 
Q 3130 269 2774 89 
Q 2419 -90 1978 -90 
z
M 1978 269 
Q 2496 269 2822 569 
Q 3149 870 3149 1395 
L 3149 1446 
Q 3149 1798 2998 2054 
Q 2848 2310 2585 2454 
Q 2323 2598 1978 2598 
Q 1632 2598 1369 2454 
Q 1107 2310 956 2054 
Q 806 1798 806 1446 
L 806 1395 
Q 806 870 1132 569 
Q 1459 269 1978 269 
z
" transform="scale(0.015625)"/>
       </defs>
       <use xlink:href="#SpaceGrotesk-Light-36"/>
       <use xlink:href="#SpaceGrotesk-Light-30" transform="translate(60.999985 0)"/>
      </g>
     </g>
    </g>
    <g id="xtick_8">
     <g id="line2d_15">
      <path d="M 426.908704 444.75952 
L 426.908704 24.3 
" clip-path="url(#p4fd6bfe4f3)" style="fill: none; stroke: #2a3140; stroke-width: 0.6; stroke-linecap: square"/>
     </g>
     <g id="line2d_16">
      <g>
       <use xlink:href="#madc9e67ae6" x="426.908704" y="444.75952" style="fill: #8b97a6; stroke: #8b97a6; stroke-width: 0.8"/>
      </g>
     </g>
     <g id="text_8">
      <!-- 70 -->
      <g style="fill: #8b97a6" transform="translate(420.879016 458.75952) scale(0.1 -0.1)">
       <defs>
        <path id="SpaceGrotesk-Light-37" d="M 1024 0 
L 1024 154 
Q 1024 371 1062 515 
Q 1101 659 1210 864 
L 2995 4064 
L 2995 4122 
L 224 4122 
L 224 4480 
L 3418 4480 
L 3418 4013 
L 1549 659 
Q 1478 531 1449 425 
Q 1421 320 1421 154 
L 1421 0 
L 1024 0 
z
" transform="scale(0.015625)"/>
       </defs>
       <use xlink:href="#SpaceGrotesk-Light-37"/>
       <use xlink:href="#SpaceGrotesk-Light-30" transform="translate(56.799988 0)"/>
      </g>
     </g>
    </g>
    <g id="xtick_9">
     <g id="line2d_17">
      <path d="M 479.102581 444.75952 
L 479.102581 24.3 
" clip-path="url(#p4fd6bfe4f3)" style="fill: none; stroke: #2a3140; stroke-width: 0.6; stroke-linecap: square"/>
     </g>
     <g id="line2d_18">
      <g>
       <use xlink:href="#madc9e67ae6" x="479.102581" y="444.75952" style="fill: #8b97a6; stroke: #8b97a6; stroke-width: 0.8"/>
      </g>
     </g>
     <g id="text_9">
      <!-- 80 -->
      <g style="fill: #8b97a6" transform="translate(472.752581 458.75952) scale(0.1 -0.1)">
       <defs>
        <path id="SpaceGrotesk-Light-38" d="M 2022 -90 
Q 1498 -90 1123 67 
Q 749 224 547 509 
Q 346 794 346 1171 
L 346 1235 
Q 346 1581 496 1805 
Q 646 2029 864 2147 
Q 1082 2266 1267 2291 
L 1267 2368 
Q 1082 2413 886 2531 
Q 691 2650 563 2851 
Q 435 3053 435 3347 
L 435 3411 
Q 435 3782 643 4038 
Q 851 4294 1209 4432 
Q 1568 4570 2022 4570 
Q 2477 4570 2835 4432 
Q 3194 4294 3402 4038 
Q 3610 3782 3610 3411 
L 3610 3347 
Q 3610 3053 3482 2851 
Q 3354 2650 3162 2531 
Q 2970 2413 2778 2368 
L 2778 2291 
Q 2970 2266 3184 2147 
Q 3398 2029 3548 1805 
Q 3699 1581 3699 1235 
L 3699 1171 
Q 3699 794 3497 509 
Q 3296 224 2921 67 
Q 2547 -90 2022 -90 
z
M 2022 269 
Q 2605 269 2953 499 
Q 3302 730 3302 1178 
L 3302 1229 
Q 3302 1683 2953 1910 
Q 2605 2138 2022 2138 
Q 1440 2138 1091 1910 
Q 742 1683 742 1229 
L 742 1178 
Q 742 730 1091 499 
Q 1440 269 2022 269 
z
M 2022 2496 
Q 2573 2496 2893 2713 
Q 3213 2931 3213 3328 
L 3213 3379 
Q 3213 3776 2893 3993 
Q 2573 4211 2022 4211 
Q 1472 4211 1152 3993 
Q 832 3776 832 3379 
L 832 3328 
Q 832 2931 1152 2713 
Q 1472 2496 2022 2496 
z
" transform="scale(0.015625)"/>
       </defs>
       <use xlink:href="#SpaceGrotesk-Light-38"/>
       <use xlink:href="#SpaceGrotesk-Light-30" transform="translate(63.199997 0)"/>
      </g>
     </g>
    </g>
    <g id="text_10">
     <!-- Life expectancy (years) -->
     <g style="fill: #e6edf6" transform="translate(213.393041 473.63952) scale(0.12 -0.12)">
      <defs>
       <path id="SpaceGrotesk-Light-4c" d="M 550 0 
L 550 4480 
L 960 4480 
L 960 371 
L 3315 371 
L 3315 0 
L 550 0 
z
" transform="scale(0.015625)"/>
       <path id="SpaceGrotesk-Light-69" d="M 563 0 
L 563 3110 
L 947 3110 
L 947 0 
L 563 0 
z
M 757 3648 
Q 616 3648 520 3744 
Q 424 3840 424 3981 
Q 424 4128 520 4221 
Q 616 4314 757 4314 
Q 904 4314 997 4221 
Q 1090 4128 1090 3981 
Q 1090 3840 997 3744 
Q 904 3648 757 3648 
z
" transform="scale(0.015625)"/>
       <path id="SpaceGrotesk-Light-66" d="M 1216 0 
L 1216 2765 
L 192 2765 
L 192 3110 
L 1216 3110 
L 1216 3994 
Q 1216 4224 1341 4352 
Q 1466 4480 1715 4480 
L 2483 4480 
L 2483 4134 
L 1792 4134 
Q 1600 4134 1600 3942 
L 1600 3110 
L 2650 3110 
L 2650 2765 
L 1600 2765 
L 1600 0 
L 1216 0 
z
" transform="scale(0.015625)"/>
       <path id="SpaceGrotesk-Light-65" d="M 1997 -90 
Q 1517 -90 1161 112 
Q 806 314 608 678 
Q 410 1043 410 1517 
L 410 1594 
Q 410 2074 608 2435 
Q 806 2797 1155 2998 
Q 1504 3200 1952 3200 
Q 2387 3200 2723 3017 
Q 3059 2835 3251 2492 
Q 3443 2150 3443 1677 
L 3443 1472 
L 794 1472 
Q 813 890 1149 573 
Q 1485 256 1997 256 
Q 2432 256 2672 454 
Q 2912 653 3040 941 
L 3386 787 
Q 3290 576 3120 374 
Q 2950 173 2681 41 
Q 2413 -90 1997 -90 
z
M 800 1805 
L 3053 1805 
Q 3027 2310 2726 2582 
Q 2426 2854 1952 2854 
Q 1485 2854 1177 2582 
Q 870 2310 800 1805 
z
" transform="scale(0.015625)"/>
       <path id="SpaceGrotesk-Light-20" transform="scale(0.015625)"/>
       <path id="SpaceGrotesk-Light-78" d="M 320 0 
L 1619 1581 
L 365 3110 
L 845 3110 
L 1862 1837 
L 1939 1837 
L 2957 3110 
L 3437 3110 
L 2182 1581 
L 3482 0 
L 2995 0 
L 1939 1325 
L 1862 1325 
L 806 0 
L 320 0 
z
" transform="scale(0.015625)"/>
       <path id="SpaceGrotesk-Light-70" d="M 563 -1280 
L 563 3110 
L 934 3110 
L 934 2541 
L 1011 2541 
Q 1146 2797 1430 2998 
Q 1715 3200 2227 3200 
Q 2643 3200 2982 3005 
Q 3322 2810 3523 2451 
Q 3725 2093 3725 1594 
L 3725 1517 
Q 3725 1024 3526 662 
Q 3328 301 2989 105 
Q 2650 -90 2227 -90 
Q 1888 -90 1648 3 
Q 1408 96 1257 243 
Q 1107 390 1024 544 
L 947 544 
L 947 -1280 
L 563 -1280 
z
M 2138 256 
Q 2669 256 2998 595 
Q 3328 934 3328 1530 
L 3328 1581 
Q 3328 2176 2998 2515 
Q 2669 2854 2138 2854 
Q 1613 2854 1280 2515 
Q 947 2176 947 1581 
L 947 1530 
Q 947 934 1280 595 
Q 1613 256 2138 256 
z
" transform="scale(0.015625)"/>
       <path id="SpaceGrotesk-Light-63" d="M 1984 -90 
Q 1530 -90 1174 105 
Q 819 301 614 665 
Q 410 1030 410 1523 
L 410 1587 
Q 410 2086 614 2448 
Q 819 2810 1174 3005 
Q 1530 3200 1984 3200 
Q 2432 3200 2742 3030 
Q 3053 2861 3229 2589 
Q 3405 2317 3450 2016 
L 3072 1939 
Q 3040 2189 2912 2397 
Q 2784 2605 2553 2729 
Q 2323 2854 1984 2854 
Q 1645 2854 1376 2697 
Q 1107 2541 950 2256 
Q 794 1971 794 1581 
L 794 1530 
Q 794 1139 950 854 
Q 1107 570 1376 413 
Q 1645 256 1984 256 
Q 2496 256 2765 521 
Q 3034 787 3098 1171 
L 3475 1094 
Q 3418 794 3235 522 
Q 3053 250 2742 80 
Q 2432 -90 1984 -90 
z
" transform="scale(0.015625)"/>
       <path id="SpaceGrotesk-Light-74" d="M 1690 0 
Q 1440 0 1315 128 
Q 1190 256 1190 486 
L 1190 2765 
L 192 2765 
L 192 3110 
L 1190 3110 
L 1190 4275 
L 1574 4275 
L 1574 3110 
L 2662 3110 
L 2662 2765 
L 1574 2765 
L 1574 538 
Q 1574 346 1766 346 
L 2496 346 
L 2496 0 
L 1690 0 
z
" transform="scale(0.015625)"/>
       <path id="SpaceGrotesk-Light-61" d="M 1517 -90 
Q 1190 -90 924 22 
Q 659 134 505 352 
Q 352 570 352 877 
Q 352 1190 505 1395 
Q 659 1600 921 1702 
Q 1184 1805 1504 1805 
L 2643 1805 
L 2643 2054 
Q 2643 2432 2425 2643 
Q 2208 2854 1792 2854 
Q 1382 2854 1142 2652 
Q 902 2451 819 2112 
L 448 2221 
Q 525 2496 691 2717 
Q 858 2938 1133 3069 
Q 1408 3200 1792 3200 
Q 2381 3200 2704 2893 
Q 3027 2586 3027 2035 
L 3027 525 
Q 3027 333 3206 333 
L 3507 333 
L 3507 0 
L 3098 0 
Q 2899 0 2784 118 
Q 2669 237 2669 442 
L 2669 486 
L 2605 486 
Q 2522 346 2390 211 
Q 2259 77 2048 -6 
Q 1837 -90 1517 -90 
z
M 1542 256 
Q 2035 256 2339 553 
Q 2643 851 2643 1395 
L 2643 1472 
L 1510 1472 
Q 1178 1472 957 1328 
Q 736 1184 736 883 
Q 736 582 963 419 
Q 1190 256 1542 256 
z
" transform="scale(0.015625)"/>
       <path id="SpaceGrotesk-Light-6e" d="M 563 0 
L 563 3110 
L 934 3110 
L 934 2534 
L 1011 2534 
Q 1126 2784 1388 2979 
Q 1651 3174 2150 3174 
Q 2490 3174 2771 3033 
Q 3053 2893 3222 2608 
Q 3392 2323 3392 1894 
L 3392 0 
L 3008 0 
L 3008 1869 
Q 3008 2381 2752 2605 
Q 2496 2829 2067 2829 
Q 1587 2829 1267 2512 
Q 947 2195 947 1555 
L 947 0 
L 563 0 
z
" transform="scale(0.015625)"/>
       <path id="SpaceGrotesk-Light-79" d="M 954 -1280 
L 954 -934 
L 2771 -934 
Q 2963 -934 2963 -742 
L 2963 538 
L 2886 538 
Q 2810 384 2672 246 
Q 2534 109 2313 22 
Q 2093 -64 1760 -64 
Q 1427 -64 1142 77 
Q 858 218 688 499 
Q 518 781 518 1210 
L 518 3110 
L 902 3110 
L 902 1235 
Q 902 730 1158 506 
Q 1414 282 1843 282 
Q 2323 282 2643 595 
Q 2963 909 2963 1549 
L 2963 3110 
L 3347 3110 
L 3347 -794 
Q 3347 -1024 3222 -1152 
Q 3098 -1280 2848 -1280 
L 954 -1280 
z
" transform="scale(0.015625)"/>
       <path id="SpaceGrotesk-Light-28" d="M 2310 -1472 
Q 1728 -1472 1302 -1270 
Q 877 -1069 643 -624 
Q 410 -179 410 538 
L 410 2726 
Q 410 3450 643 3891 
Q 877 4333 1302 4534 
Q 1728 4736 2310 4736 
L 2310 4403 
Q 1517 4390 1149 3971 
Q 781 3552 781 2694 
L 781 570 
Q 781 -282 1149 -704 
Q 1517 -1126 2310 -1139 
L 2310 -1472 
z
" transform="scale(0.015625)"/>
       <path id="SpaceGrotesk-Light-72" d="M 563 0 
L 563 3110 
L 934 3110 
L 934 2720 
L 1011 2720 
Q 1101 2931 1277 3027 
Q 1453 3123 1766 3123 
L 2131 3123 
L 2131 2765 
L 1722 2765 
Q 1370 2765 1158 2566 
Q 947 2368 947 1946 
L 947 0 
L 563 0 
z
" transform="scale(0.015625)"/>
       <path id="SpaceGrotesk-Light-73" d="M 1798 -90 
Q 1235 -90 835 179 
Q 435 448 346 1069 
L 723 1139 
Q 774 800 931 605 
Q 1088 410 1315 326 
Q 1542 243 1798 243 
Q 2182 243 2416 400 
Q 2650 557 2650 832 
Q 2650 1114 2429 1222 
Q 2208 1331 1843 1395 
L 1549 1446 
Q 1254 1498 1017 1603 
Q 781 1709 643 1888 
Q 506 2067 506 2336 
Q 506 2739 822 2969 
Q 1139 3200 1664 3200 
Q 2195 3200 2518 2960 
Q 2842 2720 2925 2266 
L 2566 2189 
Q 2502 2560 2262 2713 
Q 2022 2867 1664 2867 
Q 1312 2867 1101 2732 
Q 890 2598 890 2336 
Q 890 2080 1082 1961 
Q 1274 1843 1606 1786 
L 1901 1734 
Q 2221 1683 2477 1584 
Q 2733 1485 2883 1305 
Q 3034 1126 3034 832 
Q 3034 390 2701 150 
Q 2368 -90 1798 -90 
z
" transform="scale(0.015625)"/>
       <path id="SpaceGrotesk-Light-29" d="M 64 -1472 
L 64 -1139 
Q 864 -1126 1229 -704 
Q 1594 -282 1594 570 
L 1594 2694 
Q 1594 3552 1229 3971 
Q 864 4390 64 4403 
L 64 4736 
Q 646 4736 1072 4534 
Q 1498 4333 1731 3891 
Q 1965 3450 1965 2726 
L 1965 538 
Q 1965 -179 1731 -624 
Q 1498 -1069 1072 -1270 
Q 646 -1472 64 -1472 
z
" transform="scale(0.015625)"/>
      </defs>
      <use xlink:href="#SpaceGrotesk-Light-4c"/>
      <use xlink:href="#SpaceGrotesk-Light-69" transform="translate(54.699997 0)"/>
      <use xlink:href="#SpaceGrotesk-Light-66" transform="translate(78.299988 0)"/>
      <use xlink:href="#SpaceGrotesk-Light-65" transform="translate(122.699982 0)"/>
      <use xlink:href="#SpaceGrotesk-Light-20" transform="translate(182.499969 0)"/>
      <use xlink:href="#SpaceGrotesk-Light-65" transform="translate(208.299957 0)"/>
      <use xlink:href="#SpaceGrotesk-Light-78" transform="translate(268.099945 0)"/>
      <use xlink:href="#SpaceGrotesk-Light-70" transform="translate(327.499939 0)"/>
      <use xlink:href="#SpaceGrotesk-Light-65" transform="translate(392.09993 0)"/>
      <use xlink:href="#SpaceGrotesk-Light-63" transform="translate(451.899918 0)"/>
      <use xlink:href="#SpaceGrotesk-Light-74" transform="translate(512.199905 0)"/>
      <use xlink:href="#SpaceGrotesk-Light-61" transform="translate(558.399902 0)"/>
      <use xlink:href="#SpaceGrotesk-Light-6e" transform="translate(615.799896 0)"/>
      <use xlink:href="#SpaceGrotesk-Light-63" transform="translate(676.999893 0)"/>
      <use xlink:href="#SpaceGrotesk-Light-79" transform="translate(737.299881 0)"/>
      <use xlink:href="#SpaceGrotesk-Light-20" transform="translate(798.399872 0)"/>
      <use xlink:href="#SpaceGrotesk-Light-28" transform="translate(824.19986 0)"/>
      <use xlink:href="#SpaceGrotesk-Light-79" transform="translate(861.29985 0)"/>
      <use xlink:href="#SpaceGrotesk-Light-65" transform="translate(922.399841 0)"/>
      <use xlink:href="#SpaceGrotesk-Light-61" transform="translate(982.199829 0)"/>
      <use xlink:href="#SpaceGrotesk-Light-72" transform="translate(1039.599823 0)"/>
      <use xlink:href="#SpaceGrotesk-Light-73" transform="translate(1076.499817 0)"/>
      <use xlink:href="#SpaceGrotesk-Light-29" transform="translate(1129.299805 0)"/>
     </g>
    </g>
   </g>
   <g id="matplotlib.axis_2">
    <g id="ytick_1">
     <g id="line2d_19">
      <defs>
       <path id="m5a9361fdca" d="M 0 0 
L -3.5 0 
" style="stroke: #8b97a6; stroke-width: 0.8"/>
      </defs>
      <g>
       <use xlink:href="#m5a9361fdca" x="61.551563" y="49.262346" style="fill: #8b97a6; stroke: #8b97a6; stroke-width: 0.8"/>
      </g>
     </g>
     <g id="text_11">
      <!-- Japan -->
      <g style="fill: #8b97a6" transform="translate(24.610938 52.762346) scale(0.1 -0.1)">
       <defs>
        <path id="SpaceGrotesk-Light-4a" d="M 1670 -90 
Q 1030 -90 656 278 
Q 282 646 282 1344 
L 282 1658 
L 691 1658 
L 691 1344 
Q 691 877 934 579 
Q 1178 282 1677 282 
Q 2189 282 2387 579 
Q 2586 877 2586 1344 
L 2586 4109 
L 1792 4109 
L 1792 4480 
L 3469 4480 
L 3469 4109 
L 2995 4109 
L 2995 1344 
Q 2995 646 2665 278 
Q 2336 -90 1670 -90 
z
" transform="scale(0.015625)"/>
       </defs>
       <use xlink:href="#SpaceGrotesk-Light-4a"/>
       <use xlink:href="#SpaceGrotesk-Light-61" transform="translate(58.799988 0)"/>
       <use xlink:href="#SpaceGrotesk-Light-70" transform="translate(116.199982 0)"/>
       <use xlink:href="#SpaceGrotesk-Light-61" transform="translate(180.799973 0)"/>
       <use xlink:href="#SpaceGrotesk-Light-6e" transform="translate(238.199966 0)"/>
      </g>
     </g>
    </g>
    <g id="ytick_2">
     <g id="line2d_20">
      <g>
       <use xlink:href="#m5a9361fdca" x="61.551563" y="68.764179" style="fill: #8b97a6; stroke: #8b97a6; stroke-width: 0.8"/>
      </g>
     </g>
     <g id="text_12">
      <!-- Norway -->
      <g style="fill: #8b97a6" transform="translate(18.121875 72.264179) scale(0.1 -0.1)">
       <defs>
        <path id="SpaceGrotesk-Light-4e" d="M 550 0 
L 550 4480 
L 1363 4480 
L 3194 243 
L 3270 243 
L 3270 4480 
L 3680 4480 
L 3680 0 
L 2867 0 
L 1037 4243 
L 960 4243 
L 960 0 
L 550 0 
z
" transform="scale(0.015625)"/>
        <path id="SpaceGrotesk-Light-6f" d="M 1984 -90 
Q 1510 -90 1155 112 
Q 800 314 605 675 
Q 410 1037 410 1517 
L 410 1594 
Q 410 2074 605 2435 
Q 800 2797 1155 2998 
Q 1510 3200 1984 3200 
Q 2458 3200 2813 2998 
Q 3168 2797 3363 2435 
Q 3558 2074 3558 1594 
L 3558 1517 
Q 3558 1037 3363 675 
Q 3168 314 2813 112 
Q 2458 -90 1984 -90 
z
M 1984 256 
Q 2534 256 2854 605 
Q 3174 954 3174 1530 
L 3174 1581 
Q 3174 2157 2854 2505 
Q 2534 2854 1984 2854 
Q 1440 2854 1117 2505 
Q 794 2157 794 1581 
L 794 1530 
Q 794 954 1117 605 
Q 1440 256 1984 256 
z
" transform="scale(0.015625)"/>
        <path id="SpaceGrotesk-Light-77" d="M 1075 0 
L 371 3110 
L 768 3110 
L 1382 256 
L 1459 256 
L 2259 3110 
L 2912 3110 
L 3712 256 
L 3789 256 
L 4403 3110 
L 4800 3110 
L 4096 0 
L 3424 0 
L 2624 2854 
L 2547 2854 
L 1747 0 
L 1075 0 
z
" transform="scale(0.015625)"/>
       </defs>
       <use xlink:href="#SpaceGrotesk-Light-4e"/>
       <use xlink:href="#SpaceGrotesk-Light-6f" transform="translate(66.099991 0)"/>
       <use xlink:href="#SpaceGrotesk-Light-72" transform="translate(128.099976 0)"/>
       <use xlink:href="#SpaceGrotesk-Light-77" transform="translate(164.999969 0)"/>
       <use xlink:href="#SpaceGrotesk-Light-61" transform="translate(245.799957 0)"/>
       <use xlink:href="#SpaceGrotesk-Light-79" transform="translate(303.199951 0)"/>
      </g>
     </g>
    </g>
    <g id="ytick_3">
     <g id="line2d_21">
      <g>
       <use xlink:href="#m5a9361fdca" x="61.551563" y="88.266012" style="fill: #8b97a6; stroke: #8b97a6; stroke-width: 0.8"/>
      </g>
     </g>
     <g id="text_13">
      <!-- Spain -->
      <g style="fill: #8b97a6" transform="translate(27.7125 91.836325) scale(0.1 -0.1)">
       <defs>
        <path id="SpaceGrotesk-Light-53" d="M 2016 -90 
Q 1536 -90 1158 80 
Q 781 250 563 598 
Q 346 947 346 1485 
L 346 1606 
L 755 1606 
L 755 1485 
Q 755 864 1110 566 
Q 1466 269 2016 269 
Q 2573 269 2873 528 
Q 3174 787 3174 1190 
Q 3174 1459 3043 1622 
Q 2912 1786 2678 1885 
Q 2445 1984 2138 2061 
L 1728 2163 
Q 1363 2259 1075 2403 
Q 787 2547 620 2780 
Q 454 3014 454 3379 
Q 454 3744 643 4013 
Q 832 4282 1165 4426 
Q 1498 4570 1939 4570 
Q 2381 4570 2736 4416 
Q 3091 4262 3299 3964 
Q 3507 3667 3507 3219 
L 3507 2918 
L 3098 2918 
L 3098 3219 
Q 3098 3571 2944 3788 
Q 2790 4006 2528 4108 
Q 2266 4211 1939 4211 
Q 1472 4211 1168 3996 
Q 864 3782 864 3379 
Q 864 3110 989 2950 
Q 1114 2790 1341 2694 
Q 1568 2598 1875 2522 
L 2285 2419 
Q 2637 2336 2931 2198 
Q 3226 2061 3405 1821 
Q 3584 1581 3584 1190 
Q 3584 800 3389 512 
Q 3194 224 2842 67 
Q 2490 -90 2016 -90 
z
" transform="scale(0.015625)"/>
       </defs>
       <use xlink:href="#SpaceGrotesk-Light-53"/>
       <use xlink:href="#SpaceGrotesk-Light-70" transform="translate(61.599991 0)"/>
       <use xlink:href="#SpaceGrotesk-Light-61" transform="translate(126.199982 0)"/>
       <use xlink:href="#SpaceGrotesk-Light-69" transform="translate(183.599976 0)"/>
       <use xlink:href="#SpaceGrotesk-Light-6e" transform="translate(207.199966 0)"/>
      </g>
     </g>
    </g>
    <g id="ytick_4">
     <g id="line2d_22">
      <g>
       <use xlink:href="#m5a9361fdca" x="61.551563" y="107.767845" style="fill: #8b97a6; stroke: #8b97a6; stroke-width: 0.8"/>
      </g>
     </g>
     <g id="text_14">
      <!-- France -->
      <g style="fill: #8b97a6" transform="translate(21.570312 111.267845) scale(0.1 -0.1)">
       <defs>
        <path id="SpaceGrotesk-Light-46" d="M 550 0 
L 550 4480 
L 3213 4480 
L 3213 4109 
L 960 4109 
L 960 2432 
L 3027 2432 
L 3027 2061 
L 960 2061 
L 960 0 
L 550 0 
z
" transform="scale(0.015625)"/>
       </defs>
       <use xlink:href="#SpaceGrotesk-Light-46"/>
       <use xlink:href="#SpaceGrotesk-Light-72" transform="translate(54.199997 0)"/>
       <use xlink:href="#SpaceGrotesk-Light-61" transform="translate(91.099991 0)"/>
       <use xlink:href="#SpaceGrotesk-Light-6e" transform="translate(148.499985 0)"/>
       <use xlink:href="#SpaceGrotesk-Light-63" transform="translate(209.699982 0)"/>
       <use xlink:href="#SpaceGrotesk-Light-65" transform="translate(269.999969 0)"/>
      </g>
     </g>
    </g>
    <g id="ytick_5">
     <g id="line2d_23">
      <g>
       <use xlink:href="#m5a9361fdca" x="61.551563" y="127.269678" style="fill: #8b97a6; stroke: #8b97a6; stroke-width: 0.8"/>
      </g>
     </g>
     <g id="text_15">
      <!-- Argentina -->
      <g style="fill: #8b97a6" transform="translate(7.2 130.769678) scale(0.1 -0.1)">
       <defs>
        <path id="SpaceGrotesk-Light-41" d="M 179 0 
L 1645 4480 
L 2374 4480 
L 3840 0 
L 3411 0 
L 3027 1190 
L 992 1190 
L 608 0 
L 179 0 
z
M 1107 1562 
L 2912 1562 
L 2048 4237 
L 1971 4237 
L 1107 1562 
z
" transform="scale(0.015625)"/>
        <path id="SpaceGrotesk-Light-67" d="M 410 1542 
L 410 1619 
Q 410 2112 611 2464 
Q 813 2816 1152 3008 
Q 1491 3200 1907 3200 
Q 2419 3200 2704 2998 
Q 2989 2797 3123 2541 
L 3200 2541 
L 3200 3110 
L 3558 3110 
L 3558 -794 
Q 3558 -1024 3436 -1152 
Q 3315 -1280 3066 -1280 
L 941 -1280 
L 941 -934 
L 2989 -934 
Q 3187 -934 3187 -742 
L 3187 595 
L 3110 595 
Q 3027 442 2876 294 
Q 2726 147 2489 54 
Q 2253 -38 1907 -38 
Q 1491 -38 1148 154 
Q 806 346 608 701 
Q 410 1056 410 1542 
z
M 1997 307 
Q 2528 307 2857 640 
Q 3187 973 3187 1555 
L 3187 1606 
Q 3187 2195 2857 2524 
Q 2528 2854 1997 2854 
Q 1472 2854 1139 2524 
Q 806 2195 806 1606 
L 806 1555 
Q 806 973 1139 640 
Q 1472 307 1997 307 
z
" transform="scale(0.015625)"/>
       </defs>
       <use xlink:href="#SpaceGrotesk-Light-41"/>
       <use xlink:href="#SpaceGrotesk-Light-72" transform="translate(62.799988 0)"/>
       <use xlink:href="#SpaceGrotesk-Light-67" transform="translate(99.699982 0)"/>
       <use xlink:href="#SpaceGrotesk-Light-65" transform="translate(164.099976 0)"/>
       <use xlink:href="#SpaceGrotesk-Light-6e" transform="translate(223.899963 0)"/>
       <use xlink:href="#SpaceGrotesk-Light-74" transform="translate(285.09996 0)"/>
       <use xlink:href="#SpaceGrotesk-Light-69" transform="translate(331.299957 0)"/>
       <use xlink:href="#SpaceGrotesk-Light-6e" transform="translate(354.899948 0)"/>
       <use xlink:href="#SpaceGrotesk-Light-61" transform="translate(416.099945 0)"/>
      </g>
     </g>
    </g>
    <g id="ytick_6">
     <g id="line2d_24">
      <g>
       <use xlink:href="#m5a9361fdca" x="61.551563" y="146.771511" style="fill: #8b97a6; stroke: #8b97a6; stroke-width: 0.8"/>
      </g>
     </g>
     <g id="text_16">
      <!-- Germany -->
      <g style="fill: #8b97a6" transform="translate(11.7 150.341824) scale(0.1 -0.1)">
       <defs>
        <path id="SpaceGrotesk-Light-47" d="M 2112 -90 
Q 1600 -90 1216 118 
Q 832 326 621 732 
Q 410 1139 410 1734 
L 410 2746 
Q 410 3642 880 4106 
Q 1350 4570 2138 4570 
Q 2918 4570 3318 4134 
Q 3718 3699 3718 2976 
L 3718 2944 
L 3309 2944 
L 3309 2989 
Q 3309 3341 3187 3613 
Q 3066 3885 2806 4041 
Q 2547 4198 2138 4198 
Q 1517 4198 1168 3820 
Q 819 3443 819 2758 
L 819 1722 
Q 819 1037 1168 659 
Q 1517 282 2138 282 
Q 2746 282 3034 634 
Q 3322 986 3322 1581 
L 3322 1709 
L 1843 1709 
L 1843 2067 
L 3718 2067 
L 3718 0 
L 3347 0 
L 3347 506 
L 3270 506 
Q 3194 352 3053 214 
Q 2912 77 2685 -6 
Q 2458 -90 2112 -90 
z
" transform="scale(0.015625)"/>
        <path id="SpaceGrotesk-Light-6d" d="M 563 0 
L 563 3110 
L 934 3110 
L 934 2701 
L 1011 2701 
Q 1107 2874 1318 3024 
Q 1530 3174 1920 3174 
Q 2298 3174 2531 3001 
Q 2765 2829 2867 2586 
L 2944 2586 
Q 3053 2829 3283 3001 
Q 3514 3174 3930 3174 
Q 4250 3174 4486 3043 
Q 4723 2912 4857 2678 
Q 4992 2445 4992 2131 
L 4992 0 
L 4608 0 
L 4608 2093 
Q 4608 2426 4406 2627 
Q 4205 2829 3840 2829 
Q 3469 2829 3219 2589 
Q 2970 2349 2970 1888 
L 2970 0 
L 2586 0 
L 2586 2093 
Q 2586 2426 2384 2627 
Q 2182 2829 1818 2829 
Q 1446 2829 1196 2589 
Q 947 2349 947 1888 
L 947 0 
L 563 0 
z
" transform="scale(0.015625)"/>
       </defs>
       <use xlink:href="#SpaceGrotesk-Light-47"/>
       <use xlink:href="#SpaceGrotesk-Light-65" transform="translate(65.899994 0)"/>
       <use xlink:href="#SpaceGrotesk-Light-72" transform="translate(125.699982 0)"/>
       <use xlink:href="#SpaceGrotesk-Light-6d" transform="translate(162.599976 0)"/>
       <use xlink:href="#SpaceGrotesk-Light-61" transform="translate(248.799957 0)"/>
       <use xlink:href="#SpaceGrotesk-Light-6e" transform="translate(306.199951 0)"/>
       <use xlink:href="#SpaceGrotesk-Light-79" transform="translate(367.399948 0)"/>
      </g>
     </g>
    </g>
    <g id="ytick_7">
     <g id="line2d_25">
      <g>
       <use xlink:href="#m5a9361fdca" x="61.551563" y="166.273344" style="fill: #8b97a6; stroke: #8b97a6; stroke-width: 0.8"/>
      </g>
     </g>
     <g id="text_17">
      <!-- Mexico -->
      <g style="fill: #8b97a6" transform="translate(19.4625 169.773344) scale(0.1 -0.1)">
       <defs>
        <path id="SpaceGrotesk-Light-4d" d="M 550 0 
L 550 4480 
L 1350 4480 
L 2707 243 
L 2784 243 
L 4141 4480 
L 4941 4480 
L 4941 0 
L 4544 0 
L 4544 4237 
L 4467 4237 
L 3110 0 
L 2381 0 
L 1024 4237 
L 947 4237 
L 947 0 
L 550 0 
z
" transform="scale(0.015625)"/>
       </defs>
       <use xlink:href="#SpaceGrotesk-Light-4d"/>
       <use xlink:href="#SpaceGrotesk-Light-65" transform="translate(85.799988 0)"/>
       <use xlink:href="#SpaceGrotesk-Light-78" transform="translate(145.599976 0)"/>
       <use xlink:href="#SpaceGrotesk-Light-69" transform="translate(204.999969 0)"/>
       <use xlink:href="#SpaceGrotesk-Light-63" transform="translate(228.59996 0)"/>
       <use xlink:href="#SpaceGrotesk-Light-6f" transform="translate(288.899948 0)"/>
      </g>
     </g>
    </g>
    <g id="ytick_8">
     <g id="line2d_26">
      <g>
       <use xlink:href="#m5a9361fdca" x="61.551563" y="185.775177" style="fill: #8b97a6; stroke: #8b97a6; stroke-width: 0.8"/>
      </g>
     </g>
     <g id="text_18">
      <!-- Canada -->
      <g style="fill: #8b97a6" transform="translate(18.340625 189.275177) scale(0.1 -0.1)">
       <defs>
        <path id="SpaceGrotesk-Light-43" d="M 2138 -90 
Q 1350 -90 880 374 
Q 410 838 410 1734 
L 410 2746 
Q 410 3642 880 4106 
Q 1350 4570 2138 4570 
Q 2918 4570 3331 4131 
Q 3744 3693 3744 2938 
L 3744 2906 
L 3334 2906 
L 3334 2950 
Q 3334 3501 3043 3849 
Q 2752 4198 2138 4198 
Q 1517 4198 1168 3820 
Q 819 3443 819 2758 
L 819 1722 
Q 819 1037 1168 659 
Q 1517 282 2138 282 
Q 2752 282 3043 630 
Q 3334 979 3334 1530 
L 3334 1626 
L 3744 1626 
L 3744 1542 
Q 3744 787 3331 348 
Q 2918 -90 2138 -90 
z
" transform="scale(0.015625)"/>
        <path id="SpaceGrotesk-Light-64" d="M 1907 -90 
Q 1491 -90 1152 105 
Q 813 301 611 662 
Q 410 1024 410 1517 
L 410 1594 
Q 410 2086 608 2448 
Q 806 2810 1148 3005 
Q 1491 3200 1907 3200 
Q 2253 3200 2489 3107 
Q 2726 3014 2876 2870 
Q 3027 2726 3110 2566 
L 3187 2566 
L 3187 4480 
L 3571 4480 
L 3571 0 
L 3200 0 
L 3200 570 
L 3123 570 
Q 2989 314 2704 112 
Q 2419 -90 1907 -90 
z
M 1997 256 
Q 2528 256 2857 595 
Q 3187 934 3187 1530 
L 3187 1581 
Q 3187 2176 2857 2515 
Q 2528 2854 1997 2854 
Q 1472 2854 1139 2515 
Q 806 2176 806 1581 
L 806 1530 
Q 806 934 1139 595 
Q 1472 256 1997 256 
z
" transform="scale(0.015625)"/>
       </defs>
       <use xlink:href="#SpaceGrotesk-Light-43"/>
       <use xlink:href="#SpaceGrotesk-Light-61" transform="translate(64.099991 0)"/>
       <use xlink:href="#SpaceGrotesk-Light-6e" transform="translate(121.499985 0)"/>
       <use xlink:href="#SpaceGrotesk-Light-61" transform="translate(182.699982 0)"/>
       <use xlink:href="#SpaceGrotesk-Light-64" transform="translate(240.099976 0)"/>
       <use xlink:href="#SpaceGrotesk-Light-61" transform="translate(304.699966 0)"/>
      </g>
     </g>
    </g>
    <g id="ytick_9">
     <g id="line2d_27">
      <g>
       <use xlink:href="#m5a9361fdca" x="61.551563" y="205.27701" style="fill: #8b97a6; stroke: #8b97a6; stroke-width: 0.8"/>
      </g>
     </g>
     <g id="text_19">
      <!-- Thailand -->
      <g style="fill: #8b97a6" transform="translate(13.771875 208.77701) scale(0.1 -0.1)">
       <defs>
        <path id="SpaceGrotesk-Light-54" d="M 1677 0 
L 1677 4109 
L 179 4109 
L 179 4480 
L 3584 4480 
L 3584 4109 
L 2086 4109 
L 2086 0 
L 1677 0 
z
" transform="scale(0.015625)"/>
        <path id="SpaceGrotesk-Light-68" d="M 563 0 
L 563 4480 
L 947 4480 
L 947 2566 
L 1024 2566 
Q 1101 2720 1238 2857 
Q 1376 2995 1597 3081 
Q 1818 3168 2150 3168 
Q 2490 3168 2771 3027 
Q 3053 2886 3222 2604 
Q 3392 2323 3392 1894 
L 3392 0 
L 3008 0 
L 3008 1869 
Q 3008 2381 2752 2601 
Q 2496 2822 2067 2822 
Q 1587 2822 1267 2508 
Q 947 2195 947 1555 
L 947 0 
L 563 0 
z
" transform="scale(0.015625)"/>
        <path id="SpaceGrotesk-Light-6c" d="M 563 0 
L 563 4480 
L 947 4480 
L 947 0 
L 563 0 
z
" transform="scale(0.015625)"/>
       </defs>
       <use xlink:href="#SpaceGrotesk-Light-54"/>
       <use xlink:href="#SpaceGrotesk-Light-68" transform="translate(58.799988 0)"/>
       <use xlink:href="#SpaceGrotesk-Light-61" transform="translate(119.999985 0)"/>
       <use xlink:href="#SpaceGrotesk-Light-69" transform="translate(177.399979 0)"/>
       <use xlink:href="#SpaceGrotesk-Light-6c" transform="translate(200.999969 0)"/>
       <use xlink:href="#SpaceGrotesk-Light-61" transform="translate(224.59996 0)"/>
       <use xlink:href="#SpaceGrotesk-Light-6e" transform="translate(281.999954 0)"/>
       <use xlink:href="#SpaceGrotesk-Light-64" transform="translate(343.199951 0)"/>
      </g>
     </g>
    </g>
    <g id="ytick_10">
     <g id="line2d_28">
      <g>
       <use xlink:href="#m5a9361fdca" x="61.551563" y="224.778843" style="fill: #8b97a6; stroke: #8b97a6; stroke-width: 0.8"/>
      </g>
     </g>
     <g id="text_20">
      <!-- Brazil -->
      <g style="fill: #8b97a6" transform="translate(28.58125 228.278843) scale(0.1 -0.1)">
       <defs>
        <path id="SpaceGrotesk-Light-42" d="M 307 0 
L 307 371 
L 947 371 
L 947 4109 
L 307 4109 
L 307 4480 
L 2528 4480 
Q 2912 4480 3213 4339 
Q 3514 4198 3683 3945 
Q 3853 3693 3853 3360 
L 3853 3309 
Q 3853 2995 3731 2790 
Q 3610 2586 3437 2470 
Q 3264 2355 3098 2304 
L 3098 2227 
Q 3264 2189 3440 2070 
Q 3616 1952 3734 1747 
Q 3853 1542 3853 1229 
L 3853 1165 
Q 3853 800 3677 537 
Q 3501 275 3197 137 
Q 2893 0 2509 0 
L 307 0 
z
M 1357 371 
L 2470 371 
Q 2950 371 3196 595 
Q 3443 819 3443 1197 
L 3443 1248 
Q 3443 1626 3196 1850 
Q 2950 2074 2470 2074 
L 1357 2074 
L 1357 371 
z
M 1357 2445 
L 2496 2445 
Q 2938 2445 3190 2665 
Q 3443 2886 3443 3245 
L 3443 3309 
Q 3443 3667 3190 3888 
Q 2938 4109 2496 4109 
L 1357 4109 
L 1357 2445 
z
" transform="scale(0.015625)"/>
        <path id="SpaceGrotesk-Light-7a" d="M 410 0 
L 410 525 
L 2502 2701 
L 2502 2765 
L 474 2765 
L 474 3110 
L 2893 3110 
L 2893 2586 
L 794 410 
L 794 346 
L 2944 346 
L 2944 0 
L 410 0 
z
" transform="scale(0.015625)"/>
       </defs>
       <use xlink:href="#SpaceGrotesk-Light-42"/>
       <use xlink:href="#SpaceGrotesk-Light-72" transform="translate(65.999985 0)"/>
       <use xlink:href="#SpaceGrotesk-Light-61" transform="translate(102.899979 0)"/>
       <use xlink:href="#SpaceGrotesk-Light-7a" transform="translate(160.299973 0)"/>
       <use xlink:href="#SpaceGrotesk-Light-69" transform="translate(212.499969 0)"/>
       <use xlink:href="#SpaceGrotesk-Light-6c" transform="translate(236.09996 0)"/>
      </g>
     </g>
    </g>
    <g id="ytick_11">
     <g id="line2d_29">
      <g>
       <use xlink:href="#m5a9361fdca" x="61.551563" y="244.280677" style="fill: #8b97a6; stroke: #8b97a6; stroke-width: 0.8"/>
      </g>
     </g>
     <g id="text_21">
      <!-- Vietnam -->
      <g style="fill: #8b97a6" transform="translate(14.910938 247.780677) scale(0.1 -0.1)">
       <defs>
        <path id="SpaceGrotesk-Light-56" d="M 1619 0 
L 179 4480 
L 608 4480 
L 1946 237 
L 2022 237 
L 3360 4480 
L 3789 4480 
L 2349 0 
L 1619 0 
z
" transform="scale(0.015625)"/>
       </defs>
       <use xlink:href="#SpaceGrotesk-Light-56"/>
       <use xlink:href="#SpaceGrotesk-Light-69" transform="translate(61.999985 0)"/>
       <use xlink:href="#SpaceGrotesk-Light-65" transform="translate(85.599976 0)"/>
       <use xlink:href="#SpaceGrotesk-Light-74" transform="translate(145.399963 0)"/>
       <use xlink:href="#SpaceGrotesk-Light-6e" transform="translate(191.59996 0)"/>
       <use xlink:href="#SpaceGrotesk-Light-61" transform="translate(252.799957 0)"/>
       <use xlink:href="#SpaceGrotesk-Light-6d" transform="translate(310.199951 0)"/>
      </g>
     </g>
    </g>
    <g id="ytick_12">
     <g id="line2d_30">
      <g>
       <use xlink:href="#m5a9361fdca" x="61.551563" y="263.78251" style="fill: #8b97a6; stroke: #8b97a6; stroke-width: 0.8"/>
      </g>
     </g>
     <g id="text_22">
      <!-- Egypt -->
      <g style="fill: #8b97a6" transform="translate(25.251563 267.28251) scale(0.1 -0.1)">
       <defs>
        <path id="SpaceGrotesk-Light-45" d="M 550 0 
L 550 4480 
L 3258 4480 
L 3258 4109 
L 960 4109 
L 960 2432 
L 3078 2432 
L 3078 2061 
L 960 2061 
L 960 371 
L 3283 371 
L 3283 0 
L 550 0 
z
" transform="scale(0.015625)"/>
       </defs>
       <use xlink:href="#SpaceGrotesk-Light-45"/>
       <use xlink:href="#SpaceGrotesk-Light-67" transform="translate(56.699997 0)"/>
       <use xlink:href="#SpaceGrotesk-Light-79" transform="translate(121.099991 0)"/>
       <use xlink:href="#SpaceGrotesk-Light-70" transform="translate(182.199982 0)"/>
       <use xlink:href="#SpaceGrotesk-Light-74" transform="translate(246.799973 0)"/>
      </g>
     </g>
    </g>
    <g id="ytick_13">
     <g id="line2d_31">
      <g>
       <use xlink:href="#m5a9361fdca" x="61.551563" y="283.284343" style="fill: #8b97a6; stroke: #8b97a6; stroke-width: 0.8"/>
      </g>
     </g>
     <g id="text_23">
      <!-- Peru -->
      <g style="fill: #8b97a6" transform="translate(32.771875 286.784343) scale(0.1 -0.1)">
       <defs>
        <path id="SpaceGrotesk-Light-50" d="M 550 0 
L 550 4480 
L 2208 4480 
Q 2605 4480 2921 4329 
Q 3238 4179 3424 3897 
Q 3610 3616 3610 3213 
L 3610 3136 
Q 3610 2733 3421 2448 
Q 3232 2163 2915 2016 
Q 2598 1869 2208 1869 
L 960 1869 
L 960 0 
L 550 0 
z
M 960 2240 
L 2163 2240 
Q 2643 2240 2921 2477 
Q 3200 2714 3200 3142 
L 3200 3206 
Q 3200 3642 2928 3875 
Q 2656 4109 2163 4109 
L 960 4109 
L 960 2240 
z
" transform="scale(0.015625)"/>
        <path id="SpaceGrotesk-Light-75" d="M 1760 -64 
Q 1427 -64 1142 77 
Q 858 218 688 502 
Q 518 787 518 1216 
L 518 3110 
L 902 3110 
L 902 1242 
Q 902 736 1158 509 
Q 1414 282 1843 282 
Q 2323 282 2643 598 
Q 2963 915 2963 1555 
L 2963 3110 
L 3347 3110 
L 3347 0 
L 2976 0 
L 2976 576 
L 2899 576 
Q 2784 326 2521 131 
Q 2259 -64 1760 -64 
z
" transform="scale(0.015625)"/>
       </defs>
       <use xlink:href="#SpaceGrotesk-Light-50"/>
       <use xlink:href="#SpaceGrotesk-Light-65" transform="translate(59.999985 0)"/>
       <use xlink:href="#SpaceGrotesk-Light-72" transform="translate(119.799973 0)"/>
       <use xlink:href="#SpaceGrotesk-Light-75" transform="translate(156.699966 0)"/>
      </g>
     </g>
    </g>
    <g id="ytick_14">
     <g id="line2d_32">
      <g>
       <use xlink:href="#m5a9361fdca" x="61.551563" y="302.786176" style="fill: #8b97a6; stroke: #8b97a6; stroke-width: 0.8"/>
      </g>
     </g>
     <g id="text_24">
      <!-- Russia -->
      <g style="fill: #8b97a6" transform="translate(23.473438 306.286176) scale(0.1 -0.1)">
       <defs>
        <path id="SpaceGrotesk-Light-52" d="M 550 0 
L 550 4480 
L 2304 4480 
Q 2720 4480 3037 4339 
Q 3354 4198 3536 3932 
Q 3718 3667 3718 3290 
L 3718 3226 
Q 3718 2771 3500 2512 
Q 3283 2253 2989 2170 
L 2989 2093 
Q 3213 2086 3366 1952 
Q 3520 1818 3520 1523 
L 3520 0 
L 3110 0 
L 3110 1478 
Q 3110 1683 2998 1792 
Q 2886 1901 2662 1901 
L 960 1901 
L 960 0 
L 550 0 
z
M 960 2272 
L 2266 2272 
Q 2765 2272 3037 2505 
Q 3309 2739 3309 3174 
L 3309 3206 
Q 3309 3642 3043 3875 
Q 2778 4109 2266 4109 
L 960 4109 
L 960 2272 
z
" transform="scale(0.015625)"/>
       </defs>
       <use xlink:href="#SpaceGrotesk-Light-52"/>
       <use xlink:href="#SpaceGrotesk-Light-75" transform="translate(63.099991 0)"/>
       <use xlink:href="#SpaceGrotesk-Light-73" transform="translate(124.199982 0)"/>
       <use xlink:href="#SpaceGrotesk-Light-73" transform="translate(176.999969 0)"/>
       <use xlink:href="#SpaceGrotesk-Light-69" transform="translate(229.799957 0)"/>
       <use xlink:href="#SpaceGrotesk-Light-61" transform="translate(253.399948 0)"/>
      </g>
     </g>
    </g>
    <g id="ytick_15">
     <g id="line2d_33">
      <g>
       <use xlink:href="#m5a9361fdca" x="61.551563" y="322.288009" style="fill: #8b97a6; stroke: #8b97a6; stroke-width: 0.8"/>
      </g>
     </g>
     <g id="text_25">
      <!-- Kenya -->
      <g style="fill: #8b97a6" transform="translate(24.560938 325.788009) scale(0.1 -0.1)">
       <defs>
        <path id="SpaceGrotesk-Light-4b" d="M 550 0 
L 550 4480 
L 960 4480 
L 960 2458 
L 1037 2458 
L 3110 4480 
L 3686 4480 
L 1370 2266 
L 3763 0 
L 3181 0 
L 1037 2061 
L 960 2061 
L 960 0 
L 550 0 
z
" transform="scale(0.015625)"/>
       </defs>
       <use xlink:href="#SpaceGrotesk-Light-4b"/>
       <use xlink:href="#SpaceGrotesk-Light-65" transform="translate(60.399994 0)"/>
       <use xlink:href="#SpaceGrotesk-Light-6e" transform="translate(120.199982 0)"/>
       <use xlink:href="#SpaceGrotesk-Light-79" transform="translate(181.399979 0)"/>
       <use xlink:href="#SpaceGrotesk-Light-61" transform="translate(242.499969 0)"/>
      </g>
     </g>
    </g>
    <g id="ytick_16">
     <g id="line2d_34">
      <g>
       <use xlink:href="#m5a9361fdca" x="61.551563" y="341.789842" style="fill: #8b97a6; stroke: #8b97a6; stroke-width: 0.8"/>
      </g>
     </g>
     <g id="text_26">
      <!-- India -->
      <g style="fill: #8b97a6" transform="translate(31.5125 345.289842) scale(0.1 -0.1)">
       <defs>
        <path id="SpaceGrotesk-Light-49" d="M 550 0 
L 550 4480 
L 960 4480 
L 960 0 
L 550 0 
z
" transform="scale(0.015625)"/>
       </defs>
       <use xlink:href="#SpaceGrotesk-Light-49"/>
       <use xlink:href="#SpaceGrotesk-Light-6e" transform="translate(23.599991 0)"/>
       <use xlink:href="#SpaceGrotesk-Light-64" transform="translate(84.799988 0)"/>
       <use xlink:href="#SpaceGrotesk-Light-69" transform="translate(149.399979 0)"/>
       <use xlink:href="#SpaceGrotesk-Light-61" transform="translate(172.999969 0)"/>
      </g>
     </g>
    </g>
    <g id="ytick_17">
     <g id="line2d_35">
      <g>
       <use xlink:href="#m5a9361fdca" x="61.551563" y="361.291675" style="fill: #8b97a6; stroke: #8b97a6; stroke-width: 0.8"/>
      </g>
     </g>
     <g id="text_27">
      <!-- Nigeria -->
      <g style="fill: #8b97a6" transform="translate(21.371875 364.791675) scale(0.1 -0.1)">
       <use xlink:href="#SpaceGrotesk-Light-4e"/>
       <use xlink:href="#SpaceGrotesk-Light-69" transform="translate(66.099991 0)"/>
       <use xlink:href="#SpaceGrotesk-Light-67" transform="translate(89.699982 0)"/>
       <use xlink:href="#SpaceGrotesk-Light-65" transform="translate(154.099976 0)"/>
       <use xlink:href="#SpaceGrotesk-Light-72" transform="translate(213.899963 0)"/>
       <use xlink:href="#SpaceGrotesk-Light-69" transform="translate(250.799957 0)"/>
       <use xlink:href="#SpaceGrotesk-Light-61" transform="translate(274.399948 0)"/>
      </g>
     </g>
    </g>
    <g id="ytick_18">
     <g id="line2d_36">
      <g>
       <use xlink:href="#m5a9361fdca" x="61.551563" y="380.793508" style="fill: #8b97a6; stroke: #8b97a6; stroke-width: 0.8"/>
      </g>
     </g>
     <g id="text_28">
      <!-- Denmark -->
      <g style="fill: #8b97a6" transform="translate(12.509375 384.293508) scale(0.1 -0.1)">
       <defs>
        <path id="SpaceGrotesk-Light-44" d="M 307 0 
L 307 371 
L 947 371 
L 947 4109 
L 307 4109 
L 307 4480 
L 2010 4480 
Q 2886 4480 3376 4035 
Q 3866 3590 3866 2650 
L 3866 1824 
Q 3866 883 3376 441 
Q 2886 0 2010 0 
L 307 0 
z
M 1357 371 
L 2010 371 
Q 2714 371 3085 710 
Q 3456 1050 3456 1805 
L 3456 2669 
Q 3456 3430 3085 3766 
Q 2714 4102 2010 4102 
L 1357 4102 
L 1357 371 
z
" transform="scale(0.015625)"/>
        <path id="SpaceGrotesk-Light-6b" d="M 563 0 
L 563 4480 
L 947 4480 
L 947 1779 
L 1024 1779 
L 2618 3110 
L 3181 3110 
L 1338 1594 
L 3232 0 
L 2675 0 
L 1024 1402 
L 947 1402 
L 947 0 
L 563 0 
z
" transform="scale(0.015625)"/>
       </defs>
       <use xlink:href="#SpaceGrotesk-Light-44"/>
       <use xlink:href="#SpaceGrotesk-Light-65" transform="translate(66.199997 0)"/>
       <use xlink:href="#SpaceGrotesk-Light-6e" transform="translate(125.999985 0)"/>
       <use xlink:href="#SpaceGrotesk-Light-6d" transform="translate(187.199982 0)"/>
       <use xlink:href="#SpaceGrotesk-Light-61" transform="translate(273.399963 0)"/>
       <use xlink:href="#SpaceGrotesk-Light-72" transform="translate(330.799957 0)"/>
       <use xlink:href="#SpaceGrotesk-Light-6b" transform="translate(367.699951 0)"/>
      </g>
     </g>
    </g>
    <g id="ytick_19">
     <g id="line2d_37">
      <g>
       <use xlink:href="#m5a9361fdca" x="61.551563" y="400.295341" style="fill: #8b97a6; stroke: #8b97a6; stroke-width: 0.8"/>
      </g>
     </g>
     <g id="text_29">
      <!-- Chad -->
      <g style="fill: #8b97a6" transform="translate(29.821875 403.795341) scale(0.1 -0.1)">
       <use xlink:href="#SpaceGrotesk-Light-43"/>
       <use xlink:href="#SpaceGrotesk-Light-68" transform="translate(64.099991 0)"/>
       <use xlink:href="#SpaceGrotesk-Light-61" transform="translate(125.299988 0)"/>
       <use xlink:href="#SpaceGrotesk-Light-64" transform="translate(182.699982 0)"/>
      </g>
     </g>
    </g>
    <g id="ytick_20">
     <g id="line2d_38">
      <g>
       <use xlink:href="#m5a9361fdca" x="61.551563" y="419.797174" style="fill: #8b97a6; stroke: #8b97a6; stroke-width: 0.8"/>
      </g>
     </g>
     <g id="text_30">
      <!-- Haiti -->
      <g style="fill: #8b97a6" transform="translate(32.9125 423.297174) scale(0.1 -0.1)">
       <defs>
        <path id="SpaceGrotesk-Light-48" d="M 550 0 
L 550 4480 
L 960 4480 
L 960 2432 
L 3238 2432 
L 3238 4480 
L 3648 4480 
L 3648 0 
L 3238 0 
L 3238 2061 
L 960 2061 
L 960 0 
L 550 0 
z
" transform="scale(0.015625)"/>
       </defs>
       <use xlink:href="#SpaceGrotesk-Light-48"/>
       <use xlink:href="#SpaceGrotesk-Light-61" transform="translate(65.599991 0)"/>
       <use xlink:href="#SpaceGrotesk-Light-69" transform="translate(122.999985 0)"/>
       <use xlink:href="#SpaceGrotesk-Light-74" transform="translate(146.599976 0)"/>
       <use xlink:href="#SpaceGrotesk-Light-69" transform="translate(192.799973 0)"/>
      </g>
     </g>
    </g>
   </g>
   <g id="patch_3">
    <path d="M 61.551563 444.75952 
L 61.551563 24.3 
" style="fill: none; stroke: #8b97a6; stroke-width: 0.8; stroke-linejoin: miter; stroke-linecap: square"/>
   </g>
   <g id="patch_4">
    <path d="M 61.551563 444.75952 
L 505.19952 444.75952 
" style="fill: none; stroke: #8b97a6; stroke-width: 0.8; stroke-linejoin: miter; stroke-linecap: square"/>
   </g>
   <g id="patch_5">
    <path d="M 61.551563 43.411796 
L 489.541357 43.411796 
L 489.541357 55.112896 
L 61.551563 55.112896 
z
" clip-path="url(#p4fd6bfe4f3)" style="fill: #f47069"/>
   </g>
   <g id="patch_6">
    <path d="M 61.551563 62.913629 
L 489.541357 62.913629 
L 489.541357 74.614729 
L 61.551563 74.614729 
z
" clip-path="url(#p4fd6bfe4f3)" style="fill: #f47069"/>
   </g>
   <g id="patch_7">
    <path d="M 61.551563 82.415462 
L 482.756153 82.415462 
L 482.756153 94.116562 
L 61.551563 94.116562 
z
" clip-path="url(#p4fd6bfe4f3)" style="fill: #f47069"/>
   </g>
   <g id="patch_8">
    <path d="M 61.551563 101.917295 
L 459.790847 101.917295 
L 459.790847 113.618395 
L 61.551563 113.618395 
z
" clip-path="url(#p4fd6bfe4f3)" style="fill: #f47069"/>
   </g>
   <g id="patch_9">
    <path d="M 61.551563 121.419128 
L 458.746969 121.419128 
L 458.746969 133.120228 
L 61.551563 133.120228 
z
" clip-path="url(#p4fd6bfe4f3)" style="fill: #f47069"/>
   </g>
   <g id="patch_10">
    <path d="M 61.551563 140.920961 
L 457.181153 140.920961 
L 457.181153 152.622061 
L 61.551563 152.622061 
z
" clip-path="url(#p4fd6bfe4f3)" style="fill: #f47069"/>
   </g>
   <g id="patch_11">
    <path d="M 61.551563 160.422795 
L 455.615337 160.422795 
L 455.615337 172.123894 
L 61.551563 172.123894 
z
" clip-path="url(#p4fd6bfe4f3)" style="fill: #f47069"/>
   </g>
   <g id="patch_12">
    <path d="M 61.551563 179.924628 
L 450.917888 179.924628 
L 450.917888 191.625727 
L 61.551563 191.625727 
z
" clip-path="url(#p4fd6bfe4f3)" style="fill: #f47069"/>
   </g>
   <g id="patch_13">
    <path d="M 61.551563 199.426461 
L 449.87401 199.426461 
L 449.87401 211.12756 
L 61.551563 211.12756 
z
" clip-path="url(#p4fd6bfe4f3)" style="fill: #f47069"/>
   </g>
   <g id="patch_14">
    <path d="M 61.551563 218.928294 
L 441.001051 218.928294 
L 441.001051 230.629393 
L 61.551563 230.629393 
z
" clip-path="url(#p4fd6bfe4f3)" style="fill: #f47069"/>
   </g>
   <g id="patch_15">
    <path d="M 61.551563 238.430127 
L 434.737786 238.430127 
L 434.737786 250.131226 
L 61.551563 250.131226 
z
" clip-path="url(#p4fd6bfe4f3)" style="fill: #f47069"/>
   </g>
   <g id="patch_16">
    <path d="M 61.551563 257.93196 
L 425.342888 257.93196 
L 425.342888 269.633059 
L 61.551563 269.633059 
z
" clip-path="url(#p4fd6bfe4f3)" style="fill: #f47069"/>
   </g>
   <g id="patch_17">
    <path d="M 61.551563 277.433793 
L 418.035745 277.433793 
L 418.035745 289.134892 
L 61.551563 289.134892 
z
" clip-path="url(#p4fd6bfe4f3)" style="fill: #f47069"/>
   </g>
   <g id="patch_18">
    <path d="M 61.551563 296.935626 
L 409.162786 296.935626 
L 409.162786 308.636725 
L 61.551563 308.636725 
z
" clip-path="url(#p4fd6bfe4f3)" style="fill: #f47069"/>
   </g>
   <g id="patch_19">
    <path d="M 61.551563 316.437459 
L 408.640847 316.437459 
L 408.640847 328.138559 
L 61.551563 328.138559 
z
" clip-path="url(#p4fd6bfe4f3)" style="fill: #f47069"/>
   </g>
   <g id="patch_20">
    <path d="M 61.551563 335.939292 
L 407.596969 335.939292 
L 407.596969 347.640392 
L 61.551563 347.640392 
z
" clip-path="url(#p4fd6bfe4f3)" style="fill: #f47069"/>
   </g>
   <g id="patch_21">
    <path d="M 61.551563 355.441125 
L 387.241357 355.441125 
L 387.241357 367.142225 
L 61.551563 367.142225 
z
" clip-path="url(#p4fd6bfe4f3)" style="fill: #f47069"/>
   </g>
   <g id="patch_22">
    <path d="M 61.551563 374.942958 
L 385.153602 374.942958 
L 385.153602 386.644058 
L 61.551563 386.644058 
z
" clip-path="url(#p4fd6bfe4f3)" style="fill: #f47069"/>
   </g>
   <g id="patch_23">
    <path d="M 61.551563 394.444791 
L 374.714827 394.444791 
L 374.714827 406.145891 
L 61.551563 406.145891 
z
" clip-path="url(#p4fd6bfe4f3)" style="fill: #f47069"/>
   </g>
   <g id="patch_24">
    <path d="M 61.551563 413.946624 
L 374.714827 413.946624 
L 374.714827 425.647724 
L 61.551563 425.647724 
z
" clip-path="url(#p4fd6bfe4f3)" style="fill: #f47069"/>
   </g>
   <g id="text_31">
    <!-- Life Expectancy — Bars (Sorted, Still Bad) -->
    <g style="fill: #e6edf6" transform="translate(131.526323 18.3) scale(0.15 -0.15)">
     <defs>
      <path id="SpaceGrotesk-Light-2014" d="M 538 1472 
L 538 1830 
L 5350 1830 
L 5350 1472 
L 538 1472 
z
" transform="scale(0.015625)"/>
      <path id="SpaceGrotesk-Light-2c" d="M 474 -742 
L 474 -474 
L 627 -474 
Q 832 -474 832 -269 
L 832 -64 
L 749 -64 
Q 595 -64 489 35 
Q 384 134 384 288 
Q 384 442 489 541 
Q 595 640 749 640 
Q 902 640 1008 534 
Q 1114 429 1114 275 
L 1114 -256 
Q 1114 -742 634 -742 
L 474 -742 
z
" transform="scale(0.015625)"/>
     </defs>
     <use xlink:href="#SpaceGrotesk-Light-4c"/>
     <use xlink:href="#SpaceGrotesk-Light-69" transform="translate(54.699997 0)"/>
     <use xlink:href="#SpaceGrotesk-Light-66" transform="translate(78.299988 0)"/>
     <use xlink:href="#SpaceGrotesk-Light-65" transform="translate(122.699982 0)"/>
     <use xlink:href="#SpaceGrotesk-Light-20" transform="translate(182.499969 0)"/>
     <use xlink:href="#SpaceGrotesk-Light-45" transform="translate(208.299957 0)"/>
     <use xlink:href="#SpaceGrotesk-Light-78" transform="translate(264.999954 0)"/>
     <use xlink:href="#SpaceGrotesk-Light-70" transform="translate(324.399948 0)"/>
     <use xlink:href="#SpaceGrotesk-Light-65" transform="translate(388.999939 0)"/>
     <use xlink:href="#SpaceGrotesk-Light-63" transform="translate(448.799927 0)"/>
     <use xlink:href="#SpaceGrotesk-Light-74" transform="translate(509.099915 0)"/>
     <use xlink:href="#SpaceGrotesk-Light-61" transform="translate(555.299911 0)"/>
     <use xlink:href="#SpaceGrotesk-Light-6e" transform="translate(612.699905 0)"/>
     <use xlink:href="#SpaceGrotesk-Light-63" transform="translate(673.899902 0)"/>
     <use xlink:href="#SpaceGrotesk-Light-79" transform="translate(734.19989 0)"/>
     <use xlink:href="#SpaceGrotesk-Light-20" transform="translate(795.299881 0)"/>
     <use xlink:href="#SpaceGrotesk-Light-2014" transform="translate(821.099869 0)"/>
     <use xlink:href="#SpaceGrotesk-Light-20" transform="translate(913.099854 0)"/>
     <use xlink:href="#SpaceGrotesk-Light-42" transform="translate(938.899841 0)"/>
     <use xlink:href="#SpaceGrotesk-Light-61" transform="translate(1004.899826 0)"/>
     <use xlink:href="#SpaceGrotesk-Light-72" transform="translate(1062.29982 0)"/>
     <use xlink:href="#SpaceGrotesk-Light-73" transform="translate(1099.199814 0)"/>
     <use xlink:href="#SpaceGrotesk-Light-20" transform="translate(1151.999802 0)"/>
     <use xlink:href="#SpaceGrotesk-Light-28" transform="translate(1177.799789 0)"/>
     <use xlink:href="#SpaceGrotesk-Light-53" transform="translate(1214.89978 0)"/>
     <use xlink:href="#SpaceGrotesk-Light-6f" transform="translate(1276.499771 0)"/>
     <use xlink:href="#SpaceGrotesk-Light-72" transform="translate(1338.499756 0)"/>
     <use xlink:href="#SpaceGrotesk-Light-74" transform="translate(1375.39975 0)"/>
     <use xlink:href="#SpaceGrotesk-Light-65" transform="translate(1421.599747 0)"/>
     <use xlink:href="#SpaceGrotesk-Light-64" transform="translate(1481.399734 0)"/>
     <use xlink:href="#SpaceGrotesk-Light-2c" transform="translate(1545.999725 0)"/>
     <use xlink:href="#SpaceGrotesk-Light-20" transform="translate(1569.399719 0)"/>
     <use xlink:href="#SpaceGrotesk-Light-53" transform="translate(1595.199707 0)"/>
     <use xlink:href="#SpaceGrotesk-Light-74" transform="translate(1656.799698 0)"/>
     <use xlink:href="#SpaceGrotesk-Light-69" transform="translate(1702.999695 0)"/>
     <use xlink:href="#SpaceGrotesk-Light-6c" transform="translate(1726.599686 0)"/>
     <use xlink:href="#SpaceGrotesk-Light-6c" transform="translate(1750.199677 0)"/>
     <use xlink:href="#SpaceGrotesk-Light-20" transform="translate(1773.799667 0)"/>
     <use xlink:href="#SpaceGrotesk-Light-42" transform="translate(1799.599655 0)"/>
     <use xlink:href="#SpaceGrotesk-Light-61" transform="translate(1865.59964 0)"/>
     <use xlink:href="#SpaceGrotesk-Light-64" transform="translate(1922.999634 0)"/>
     <use xlink:href="#SpaceGrotesk-Light-29" transform="translate(1987.599625 0)"/>
    </g>
   </g>
  </g>
 </g>
 <defs>
  <clipPath id="p4fd6bfe4f3">
   <rect x="61.551563" y="24.3" width="443.647958" height="420.45952"/>
  </clipPath>
 </defs>
</svg>
